<svg width="781" height="520" viewBox="0 0 781 520" fill="none" xmlns="http://www.w3.org/2000/svg">
<g clip-path="url(#clip0_211_231)">
<path d="M133.698 496.689L145.464 499.872L163.358 456.051L145.99 451.353L133.698 496.689Z" fill="#FFB6B6"/>
<path d="M129.958 508.838L166.143 518.628L166.267 518.171C167.279 514.44 166.765 510.46 164.839 507.107C162.914 503.754 159.734 501.303 155.998 500.292L155.997 500.292L150.746 493.495L137.056 495.167L133.897 494.313L129.958 508.838Z" fill="#2F2E41"/>
<path d="M214.945 506.888L227.135 506.888L232.935 459.917L214.942 459.918L214.945 506.888Z" fill="#FFB6B6"/>
<path d="M214.515 519.591L252.004 519.589V519.116C252.003 515.25 250.466 511.543 247.73 508.81C244.993 506.077 241.282 504.541 237.412 504.541H237.411L230.563 499.352L217.787 504.542L214.514 504.542L214.515 519.591Z" fill="#2F2E41"/>
<path d="M220.149 236.048L236.51 467.507L210.163 469.838L173.407 298.3L177.48 397.551L162.892 475.613L140.592 464.842L140.962 383.56L111.684 252.209L119.477 236.048H220.149Z" fill="#2F2E41"/>
<path d="M115.42 264.846L115.257 264.617C106.525 252.407 119.657 223.065 121.638 218.812C119.286 218.05 117.271 216.496 115.937 214.417C114.603 212.337 114.031 209.86 114.32 207.407L115.174 200.158L116.064 193.047L109.688 186.678L109.67 186.519L106.001 154.45L100.666 133.15C98.6561 125.097 98.8274 116.656 101.163 108.692C103.498 100.727 107.913 93.5273 113.954 87.8305L126.286 85.8746L141.273 71.4509H165.441L173.727 79.3592C189.197 82.0692 191.854 81.1844 205.142 97.1118L199.104 146.631L197.598 153.443L197.602 162.683L201.432 166.934C202.811 168.465 203.813 170.297 204.359 172.283C204.904 174.27 204.978 176.356 204.573 178.376L204.07 180.891C208.019 182.582 211.788 212.627 212.688 216.824L214.033 223.093C215.184 224.609 222.779 234.725 222.779 237.49C222.779 237.906 222.472 238.307 221.814 238.752C216.638 242.253 196.002 267.087 183.34 262.027C169.853 256.64 116.239 264.721 115.699 264.803L115.42 264.846Z" fill="#3F3D56"/>
<path d="M112.173 207.264C112.173 207.264 118.379 172.228 112.127 159.052L87.3229 160.822L91.0977 210.804L112.781 266.3C112.45 268.01 112.578 269.777 113.152 271.422C113.725 273.066 114.724 274.53 116.047 275.664C117.37 276.798 118.97 277.562 120.685 277.879C122.399 278.196 124.167 278.054 125.809 277.468C127.45 276.881 128.907 275.872 130.032 274.541C131.157 273.21 131.909 271.606 132.212 269.891C132.516 268.176 132.36 266.412 131.759 264.777C131.159 263.142 130.137 261.694 128.796 260.582L112.173 207.264Z" fill="#FFB6B6"/>
<path d="M87.3228 140.47L88.8579 123.772C89.4356 117.487 91.2516 111.378 94.2014 105.797C97.1512 100.216 101.177 95.273 106.046 91.2515C109.071 88.7713 112.731 87.1858 116.611 86.6742C120.492 86.1625 124.438 86.7451 128.004 88.3562C132.824 90.5725 136.621 94.5341 138.628 99.4401C140.635 104.346 140.702 109.83 138.816 114.784C133.083 129.802 135.153 145.684 123.975 147.62L125.189 153.392L114.198 189.22L82.8934 185.598L87.3228 140.47Z" fill="#3F3D56"/>
<path d="M210.262 254.781C209.165 256.134 208.446 257.754 208.179 259.475C207.911 261.196 208.104 262.957 208.738 264.579C209.371 266.201 210.424 267.627 211.788 268.712C213.152 269.796 214.779 270.501 216.504 270.755C218.229 271.008 219.99 270.802 221.609 270.155C223.228 269.509 224.647 268.447 225.722 267.075C226.797 265.704 227.489 264.073 227.729 262.349C227.969 260.624 227.748 258.866 227.088 257.254L237.464 198.59L231.361 148.837L206.69 151.957C203.144 166.101 216.103 199.243 216.103 199.243L210.262 254.781Z" fill="#FFB6B6"/>
<path d="M240.564 172.266L210.577 181.945L199.032 163.955L199.091 158.057C187.749 158.347 180.402 127.376 171.834 113.771C169.013 109.282 168.003 103.891 169.009 98.6877C170.014 93.4841 172.961 88.856 177.252 85.7393C180.433 83.4615 184.188 82.1178 188.094 81.8601C191.999 81.6023 195.899 82.4408 199.352 84.2807C204.916 87.2711 209.833 91.3308 213.821 96.2263C217.808 101.122 220.787 106.756 222.587 112.806L227.368 128.88L240.564 172.266Z" fill="#3F3D56"/>
<path d="M151.726 64.4831C166.549 64.4831 178.566 52.4798 178.566 37.673C178.566 22.8663 166.549 10.863 151.726 10.863C136.902 10.863 124.886 22.8663 124.886 37.673C124.886 52.4798 136.902 64.4831 151.726 64.4831Z" fill="#FFB6B6"/>
<path d="M132.247 56.5701C132.013 56.3649 131.792 56.1458 131.563 55.9348C131.555 55.9564 131.553 55.9786 131.545 56.0002L132.247 56.5701Z" fill="#2F2E41"/>
<path d="M173.721 9.36161C172.388 7.21727 170.541 5.43837 168.347 4.18543C166.847 3.45893 165.271 2.90123 163.648 2.52262L159.401 1.36497C157.224 0.692278 154.985 0.24194 152.718 0.0208733C149.569 -0.13428 146.438 0.577844 143.667 2.07945C140.896 3.58105 138.592 5.81439 137.005 8.53554C135.722 10.8092 134.692 13.6425 132.216 14.4744C130.218 15.1452 128.039 14.199 125.94 14.3826C124.71 14.5606 123.543 15.0389 122.543 15.7752C121.542 16.5114 120.739 17.4828 120.204 18.6033C119.158 20.8582 118.643 23.3226 118.699 25.8072C118.616 31.4481 119.719 37.0436 121.934 42.2328C124.15 47.4221 127.43 52.0897 131.563 55.9348C132.256 54.1109 131.115 52.1416 130.213 50.3968C129.3 48.6314 128.736 46.17 130.265 44.8985C131.965 43.4836 134.691 44.8556 136.702 43.933C137.346 43.5637 137.887 43.0411 138.28 42.4116C138.672 41.7822 138.901 41.0656 138.949 40.3258C139.143 38.8598 138.94 37.3696 139.032 35.8937C139.123 34.4391 139.5 33.0166 140.141 31.7074C140.782 30.3982 141.675 29.228 142.769 28.2636C143.863 27.2991 145.136 26.5593 146.516 26.0865C147.896 25.6136 149.356 25.4169 150.812 25.5075C150.846 25.5096 150.879 25.5118 150.913 25.5142C155.491 25.8409 159.935 28.966 164.341 27.6804C166.409 27.0769 168.173 25.5404 170.312 25.2819C172.681 24.9956 174.91 26.3311 176.921 27.6134C177.652 24.5131 177.745 21.297 177.195 18.1597C176.645 15.0224 175.464 12.0293 173.721 9.36161Z" fill="#2F2E41"/>
<path d="M313.976 504.528L307.147 493.565L305.782 499.83C305.543 500.927 305.304 502.042 305.083 503.148C303.142 501.493 301.078 499.962 299.059 498.494C292.858 493.998 286.66 489.498 280.464 484.991L282.404 496.228C283.6 503.148 284.85 510.209 287.808 516.536C288.136 517.253 288.49 517.961 288.871 518.651H317.697C317.929 518.01 318.09 517.345 318.176 516.669C318.183 516.625 318.186 516.58 318.184 516.536C318.636 512.244 316.262 508.201 313.976 504.528Z" fill="#F0F0F0"/>
<path d="M636.279 171.128C636.219 202.103 624.56 231.934 603.595 254.758C582.631 277.582 553.877 291.747 522.987 294.468C492.097 297.19 461.305 288.27 436.665 269.464C412.025 250.657 395.319 223.324 389.831 192.838C384.344 162.352 390.472 130.918 407.01 104.716C423.549 78.5142 449.302 59.4398 479.207 51.2427C509.111 43.0457 541.004 46.3191 568.615 60.4192C596.225 74.5194 617.557 98.4264 628.416 127.44C628.687 128.169 628.951 128.897 629.208 129.633V129.64C630.354 132.873 631.364 136.167 632.236 139.521C634.929 149.841 636.288 160.463 636.279 171.128Z" fill="#3F3D56"/>
<path d="M497.558 86.8591C491.938 83.8238 485.699 82.1103 479.316 81.8495C472.933 81.5886 466.575 82.7873 460.726 85.3539C455.576 87.5926 450.154 91.6084 448.436 98.8603C455.384 94.7644 464.378 101.236 466.166 111.617L465.749 111.732C464.804 118.923 466.912 126.752 470.994 131.21C471.297 129.198 472.045 127.279 473.184 125.592C474.323 123.906 475.823 122.493 477.577 121.458C480.575 119.489 483.893 118.059 486.181 114.674C488.895 110.662 489.584 104.798 490.662 99.4486C491.74 94.0993 493.784 88.3497 497.558 86.8591Z" fill="#2054F3"/>
<path d="M458.665 148.049C456.741 150.936 454.171 152.747 451.864 155.002C449.202 157.421 447.455 160.682 446.918 164.237C446.626 166.749 447.078 169.303 447.015 171.842C446.953 174.382 446.105 177.241 444.376 177.872C441.645 178.858 439.561 173.792 436.755 173.438C434.525 173.161 432.518 176.665 433.164 179.704C433.81 182.743 436.845 184.09 438.589 182.105C440.166 184.749 439.054 189.544 436.686 190.355C436.435 192.021 436.185 193.679 435.942 195.344C429.954 191.16 423.904 186.907 418.812 180.78C413.148 174.023 409.636 165.73 408.725 156.965C408.065 149.922 409.044 141.866 405.807 136.447C403.216 132.11 398.77 131.153 394.769 131.423C394.039 131.472 393.303 131.555 392.574 131.645C394.933 124.566 397.93 117.715 401.528 111.176C402.342 110.827 403.099 110.356 403.772 109.781C407.495 106.624 409.149 100.233 412.17 95.8128C412.365 95.5283 412.566 95.2507 412.775 94.9801C415.866 90.9486 420.006 88.8738 424.008 86.9448C432.865 82.6497 441.979 78.299 451.329 78.8957L448.669 79.1524C445.563 87.84 442.456 96.5275 439.346 105.215C438.873 106.547 438.396 107.882 437.915 109.219C436.15 114.159 434.33 119.419 434.601 124.949C434.761 128.224 435.9 131.722 438.068 132.846C440.089 133.887 442.298 132.61 444.25 131.347C445.077 130.82 445.897 130.292 446.723 129.758C449.69 127.85 452.975 125.893 456.108 127.17C458.977 128.335 461.096 132.228 461.499 136.426C461.869 140.507 460.872 144.595 458.665 148.049Z" fill="#2054F3"/>
<path d="M476.307 207.361C467.644 202.032 458.98 196.704 450.317 191.376L450.464 190.998C445.078 193.047 442.841 202.611 443.731 210.432C444.622 218.254 447.64 225.245 449.165 232.866C451.221 243.295 450.445 254.083 446.917 264.111C458.309 251.344 468.391 237.467 477.011 222.69C478.215 220.828 479.133 218.796 479.733 216.661C480.369 214.387 480.142 211.958 479.096 209.84C478.387 208.794 477.428 207.942 476.307 207.361Z" fill="#2054F3"/>
<path d="M442.116 110.428C441.099 112.609 440.942 115.094 441.677 117.386C442.532 119.233 444.082 120.667 445.991 121.377L450.778 123.747C452.37 124.536 454.087 125.332 455.71 124.684C457.668 123.901 459.026 120.835 458.675 117.988C458.301 114.959 456.39 112.875 454.622 111.101C452.148 108.618 449.674 106.135 447.2 103.652L445.805 105.358C444.297 106.827 443.05 108.541 442.116 110.428Z" fill="#2054F3"/>
<path d="M610.618 142.81C612.772 143.316 614.925 143.823 617.079 144.329C616.703 151.595 613.098 158.318 608.263 160.754C606.249 161.767 604.005 162.142 602.338 164.036C600.83 165.757 600.066 168.435 599.364 170.996C598.135 175.464 596.905 179.933 595.676 184.402C594.356 189.217 592.661 194.567 589.229 196.302C586.284 197.794 582.915 195.969 580.65 192.909C578.385 189.849 577.003 185.734 575.662 181.723C575.746 186.095 573.71 190.383 570.827 191.903C567.937 193.422 564.422 192.048 562.491 188.655C561.102 186.22 560.525 183.007 559.164 180.537C557.802 178.066 554.947 176.651 553.46 178.968C552.481 180.509 552.606 182.868 552.12 184.825C551.875 186.124 551.231 187.315 550.277 188.231C549.323 189.148 548.108 189.745 546.798 189.939C545.595 189.911 544.409 189.639 543.314 189.139C542.219 188.64 541.237 187.922 540.428 187.031C536.174 182.685 533.405 177.106 532.516 171.093C531.913 168.21 531.989 165.226 532.738 162.378C533.593 159.678 535.656 157.597 537.705 158.11C539.053 155.265 536.392 151.49 533.996 151.823C531.592 152.157 529.709 154.731 527.737 156.708C525.771 158.686 523.02 160.122 521.04 158.159C521.084 158.877 520.841 159.583 520.364 160.122C519.887 160.662 519.215 160.989 518.496 161.034C518.424 161.038 518.353 161.04 518.282 161.038C516.966 160.661 515.742 160.013 514.691 159.137C510.154 156.313 504.395 158.186 501.172 163.529C503.187 154.967 506.139 145.141 512.329 143.129C514.857 142.303 517.615 142.983 520.005 141.554C524.235 139.021 525.09 129.452 521.436 125.504C521.901 129.237 521.811 133.595 519.838 136.149C517.865 138.702 513.725 137.037 513.975 133.262C513.919 133.793 513.696 134.292 513.338 134.689C512.981 135.086 512.506 135.359 511.983 135.47C511.461 135.581 510.916 135.524 510.428 135.306C509.94 135.089 509.533 134.723 509.265 134.261C507.952 132.263 508.064 128.995 508.994 126.608C509.954 124.446 511.33 122.493 513.044 120.862C516.344 117.33 519.692 113.757 523.513 111.536C527.341 109.316 531.759 108.566 535.593 110.773C537.615 111.939 539.393 113.882 541.457 114.909C541.941 115.209 542.481 115.411 543.044 115.504C543.607 115.596 544.183 115.576 544.738 115.447C545.294 115.317 545.818 115.079 546.282 114.746C546.745 114.414 547.138 113.993 547.439 113.509C547.462 113.472 547.485 113.434 547.507 113.396C549.042 110.704 548.32 106.707 548.89 103.341C549.911 97.3948 555.864 94.6123 559.164 98.5397C556.698 97.9083 554.148 100.823 553.843 104.355C553.53 107.886 555.315 111.453 557.705 112.522C561.72 114.298 565.652 109.829 568.688 105.694C571.855 101.364 575.028 97.0363 578.205 92.7111C578.712 91.9747 579.281 91.2829 579.907 90.6433C580.902 89.6745 582.228 89.1198 583.617 89.0915C585.007 89.0631 586.355 89.5633 587.388 90.4907C590.598 93.1066 592.105 98.4704 594.738 102.162C598.559 107.526 604.276 108.83 609.597 109.871C613.564 110.641 617.533 111.416 621.504 112.196C624.151 117.115 626.46 122.208 628.416 127.44C621.133 130.757 614.957 136.091 610.618 142.81Z" fill="#2054F3"/>
<path d="M632.237 139.521C631.423 141.917 630.978 144.423 630.917 146.952C627.513 142.803 626.971 135.025 629.208 129.64C630.354 132.873 631.364 136.167 632.237 139.521Z" fill="#2054F3"/>
<path d="M623.442 226.299C620.466 232.335 617.004 238.12 613.091 243.598C610.59 242.529 607.902 244.437 605.561 246.227C603.116 248.101 600.177 249.926 597.669 248.219C595.106 246.47 594.279 241.578 595.092 237.699C596.026 234.121 597.66 230.763 599.899 227.818C601.983 224.71 604.213 221.483 607.11 220.276C610.014 219.068 613.744 220.775 614.592 224.897L616.648 224.828C615.495 223.246 616.099 219.97 617.648 219.395C619.434 218.721 620.983 221.171 622.039 223.336C622.511 224.314 622.99 225.3 623.442 226.299Z" fill="#2054F3"/>
<path d="M544.69 196.99C540.27 197.267 536.769 191.832 534.443 186.486C532.116 181.139 529.994 175.025 526.006 172.303C523.727 170.748 521.129 170.535 518.657 169.782C517.256 169.428 515.958 168.746 514.873 167.791C513.788 166.837 512.946 165.638 512.417 164.294L509.614 163.162C505.692 165.12 502.1 167.678 498.969 170.744C495.391 174.541 493.162 179.408 492.626 184.595C492.091 190.2 494.068 196.451 497.764 198.556C500.683 200.22 504.083 199.171 507.041 200.695C510.736 202.598 512.93 208.126 513.76 213.584C514.591 219.043 514.38 224.715 514.974 230.236C515.569 235.756 517.206 241.501 520.595 244.329C524.836 247.87 531.058 244.928 532.961 238.484C533.894 235.323 533.862 231.756 534.56 228.474C535.789 222.696 539.106 218.409 541.737 213.669C544.368 208.929 546.439 202.491 544.69 196.99Z" fill="#2054F3"/>
<path d="M501.016 140.207C501.428 140.586 501.813 140.994 502.167 141.428C502.533 142.059 502.721 142.778 502.708 143.508C502.696 144.238 502.484 144.95 502.096 145.568C502.629 145.538 503.149 145.398 503.624 145.157C504.1 144.915 504.52 144.578 504.858 144.166C505.665 143.249 506.374 142.25 506.976 141.187C507.258 140.823 507.46 140.403 507.568 139.955C507.675 139.506 507.686 139.041 507.6 138.588C507.391 137.993 506.897 137.739 506.551 137.291C506.071 136.416 505.744 135.466 505.583 134.481C505.391 133.558 504.945 132.707 504.295 132.023C503.646 131.339 502.818 130.85 501.905 130.61L502.127 130.652C501.75 130.876 501.452 131.212 501.276 131.612C501.099 132.013 501.053 132.459 501.143 132.888C501.277 133.754 501.834 134.473 501.779 135.356C501.699 136.626 500.428 137.222 500.35 138.492C500.337 139.129 500.577 139.745 501.016 140.207Z" fill="#2054F3"/>
<path d="M493.443 118.627L493.463 118.623C493.599 118.5 493.725 118.365 493.84 118.222L493.443 118.627Z" fill="#2054F3"/>
<path d="M494.769 124.588C495.3 124.123 495.692 123.521 495.904 122.848C496.116 122.175 496.138 121.456 495.969 120.772C495.648 119.328 494.511 118.357 493.463 118.623C493.159 118.931 492.782 119.157 492.366 119.279C491.951 119.401 491.511 119.416 491.089 119.322C490.441 119.155 489.729 118.726 489.167 119.214C488.846 119.578 488.621 120.017 488.513 120.49C488.305 121.128 488.097 121.766 487.888 122.404C487.79 122.632 487.764 122.885 487.815 123.129C487.855 123.226 487.919 123.312 488.001 123.378C488.084 123.443 488.182 123.487 488.286 123.503C489.535 123.871 490.783 124.238 492.031 124.606C492.461 124.804 492.929 124.905 493.402 124.902C493.875 124.899 494.342 124.791 494.769 124.588Z" fill="#2054F3"/>
<path d="M588.996 206.883C588.419 205.939 587.842 204.996 587.265 204.052C586.698 202.959 585.923 201.988 584.984 201.191C584.781 201.021 584.546 200.893 584.292 200.813C584.039 200.734 583.773 200.705 583.508 200.728C583.244 200.751 582.987 200.826 582.752 200.949C582.516 201.072 582.307 201.239 582.137 201.443L582.107 201.479L582.177 202.018C583.722 203.673 584.775 205.724 585.217 207.943C585.349 208.907 585.303 209.905 585.418 210.874C585.43 211.323 585.531 211.765 585.715 212.175C585.898 212.586 586.161 212.956 586.487 213.264C587.396 213.871 588.462 212.977 589.109 211.886C589.687 210.99 589.946 209.926 589.845 208.865C589.701 208.153 589.412 207.478 588.996 206.883Z" fill="#2054F3"/>
<path d="M598.047 208.111C598.157 207.227 598.085 206.331 597.836 205.476C597.794 204.32 598.101 203.178 598.717 202.198C599.328 201.273 599.791 200.259 600.089 199.192C600.215 198.705 600.192 198.193 600.023 197.72C599.833 197.291 599.37 197.096 599.105 197.435L599.672 197.8C598.906 197.664 598.118 197.702 597.368 197.912C596.94 198.075 596.558 198.339 596.254 198.682C595.95 199.024 595.733 199.434 595.622 199.878C595.528 200.57 595.375 201.253 595.164 201.919C594.825 202.614 594.169 202.845 593.757 203.456C593.476 203.997 593.335 204.599 593.345 205.209C593.355 205.818 593.516 206.416 593.815 206.947C594.333 207.816 595.155 208.462 596.123 208.76C596.816 209.008 597.729 209.021 598.047 208.111Z" fill="#2054F3"/>
<path d="M614.165 212.968C614.415 213.62 614.751 214.236 615.163 214.799C615.935 215.576 616.984 215.099 617.92 214.91C618.769 214.776 619.639 214.874 620.438 215.194C621.236 215.514 621.932 216.043 622.454 216.726C622.091 214.918 621.298 213.223 620.143 211.783C618.989 210.344 617.505 209.203 615.817 208.455C613.623 207.697 611.311 207.336 608.991 207.389L608.594 207.49C609.604 210.427 612.776 210.362 614.165 212.968Z" fill="#2054F3"/>
<path d="M545.899 218.975L545.904 218.988L546.02 218.766L545.899 218.975Z" fill="#2054F3"/>
<path d="M543.453 223.703C542.92 224.67 542.462 225.676 542.082 226.713C541.579 228.392 541.246 230.118 541.087 231.863C540.963 232.856 540.925 234.124 541.548 234.608C541.726 234.726 541.942 234.775 542.155 234.747C542.367 234.718 542.562 234.613 542.703 234.451C543.049 234.085 543.332 233.665 543.54 233.207C544.764 231.102 545.714 228.85 546.368 226.505C547.05 224.017 546.887 221.374 545.905 218.988C545.088 220.56 544.271 222.131 543.453 223.703Z" fill="#2054F3"/>
<path d="M519.865 97.751C520.253 98.1302 520.744 98.3876 521.277 98.4915C521.81 98.5954 522.362 98.5413 522.865 98.3358C523.906 97.8813 524.861 97.2513 525.688 96.4733C526.373 95.9672 526.954 95.3341 527.399 94.6087C527.644 94.1752 527.802 93.6975 527.862 93.2032C527.922 92.7088 527.884 92.2074 527.749 91.7279C527.558 91.2684 527.252 90.8653 526.862 90.5566C526.471 90.2478 526.008 90.0438 525.516 89.9636C524.131 89.5532 522.745 89.1428 521.36 88.7325L522.362 87.8303C521.331 87.2775 520.19 88.3033 519.546 89.5734C519.133 90.4027 518.845 91.2886 518.691 92.2022C518.472 93.1568 518.463 94.1475 518.666 95.1057C518.869 96.0639 519.278 96.9666 519.865 97.751Z" fill="#2054F3"/>
<path d="M544.324 89.549C544.714 89.979 545.254 90.2444 545.833 90.2915C546.413 90.3386 546.988 90.1638 547.443 89.8025C547.835 89.5087 548.16 89.1359 548.398 88.7082C548.635 88.2805 548.78 87.8076 548.823 87.3203C548.921 86.2318 548.382 85.022 547.613 84.928L547.789 83.9088C546.306 83.6414 544.482 83.5878 543.688 85.3861C543.42 86.0749 543.337 86.8219 543.449 87.5525C543.561 88.283 543.862 88.9714 544.324 89.549Z" fill="#2054F3"/>
<path d="M636.623 334.656C625.184 334.656 612.648 334.225 599.012 333.361C528.486 328.888 437.133 313.334 341.78 289.567C246.429 265.801 158.47 236.658 94.1074 207.511C62.7546 193.312 38.6915 179.871 22.5873 167.562C5.53713 154.53 -1.92085 143.171 0.419647 133.802C4.98 115.548 45.3601 111.555 78.4319 111.419L78.4431 114.074C33.0269 114.26 6.23355 121.495 2.99852 134.445C-1.12235 150.939 32.4857 176.688 95.2048 205.093C159.426 234.177 247.223 263.263 342.424 286.992C437.625 310.721 528.81 326.248 599.181 330.712C667.905 335.072 709.686 328.112 713.806 311.618C717.227 297.924 694.673 277.75 650.299 254.812L651.521 252.454C683.764 269.122 721.19 293.027 716.385 312.261C714.044 321.631 702.118 328.157 680.937 331.66C668.864 333.656 654.034 334.656 636.623 334.656Z" fill="#2054F3"/>
<path d="M200.201 338.113C168.665 338.114 139.347 337.033 113.101 334.852C78.7949 332 51.6097 327.416 32.3017 321.228C11.859 314.675 1.01374 306.48 0.066888 296.869C-1.77835 278.147 34.9112 260.834 66.0149 249.606L66.918 252.103C24.2048 267.521 1.40263 283.327 2.7115 296.61C4.37853 313.528 44.6942 326.502 113.321 332.206C183.592 338.046 276.069 335.977 373.717 326.375C471.365 316.775 562.472 300.797 630.254 281.383C696.45 262.425 733.46 241.848 731.793 224.93C730.409 210.884 702.38 199.453 652.871 192.74L653.228 190.11C689.202 194.987 732.494 204.942 734.438 224.67C735.385 234.281 726.347 244.431 707.576 254.838C689.846 264.669 664.077 274.458 630.986 283.935C563.054 303.392 471.78 319.401 373.977 329.017C312.623 335.049 253.283 338.113 200.201 338.113Z" fill="#2054F3"/>
<path d="M387.871 394.182C396.425 394.182 403.359 387.256 403.359 378.712C403.359 370.168 396.425 363.242 387.871 363.242C379.318 363.242 372.384 370.168 372.384 378.712C372.384 387.256 379.318 394.182 387.871 394.182Z" fill="#2054F3"/>
<path d="M82.8935 302.848C91.447 302.848 98.381 295.922 98.381 287.378C98.381 278.834 91.447 271.908 82.8935 271.908C74.34 271.908 67.406 278.834 67.406 287.378C67.406 295.922 74.34 302.848 82.8935 302.848Z" fill="#E6E6E6"/>
<path d="M367.253 65.7226C372.489 65.7226 376.733 61.4827 376.733 56.2525C376.733 51.0224 372.489 46.7825 367.253 46.7825C362.017 46.7825 357.772 51.0224 357.772 56.2525C357.772 61.4827 362.017 65.7226 367.253 65.7226Z" fill="#FF6584"/>
<path d="M309.891 137.211C318.444 137.211 325.378 130.284 325.378 121.741C325.378 113.197 318.444 106.271 309.891 106.271C301.337 106.271 294.403 113.197 294.403 121.741C294.403 130.284 301.337 137.211 309.891 137.211Z" fill="#E6E6E6"/>
</g>
<defs>
<clipPath id="clip0_211_231">
<rect width="781" height="520" fill="white"/>
</clipPath>
</defs>
</svg>
