<svg width="832" height="595" viewBox="0 0 832 595" fill="none" xmlns="http://www.w3.org/2000/svg">
<path d="M736.324 279.419H107.564V593.12H736.324V279.419Z" fill="#E6E6E6"/>
<path d="M718.345 306.32H125.544V568.05H718.345V306.32Z" fill="white"/>
<path d="M619.209 355.036H603.859V371.176H619.209V355.036Z" fill="#E6E6E6"/>
<path d="M209.76 355.036H194.41V371.176H209.76V355.036Z" fill="#2054F3"/>
<path d="M245.135 401.267H193.966V455.068H245.135V401.267Z" fill="#E6E6E6"/>
<path d="M736.055 261.295H107.296V289.38H736.055V261.295Z" fill="#2054F3"/>
<path d="M127.146 286.774C129.88 286.774 132.097 284.443 132.097 281.568C132.097 278.693 129.88 276.363 127.146 276.363C124.412 276.363 122.195 278.693 122.195 281.568C122.195 284.443 124.412 286.774 127.146 286.774Z" fill="white"/>
<path d="M145.938 286.774C148.672 286.774 150.889 284.443 150.889 281.568C150.889 278.693 148.672 276.363 145.938 276.363C143.204 276.363 140.987 278.693 140.987 281.568C140.987 284.443 143.204 286.774 145.938 286.774Z" fill="white"/>
<path d="M164.731 286.774C167.465 286.774 169.682 284.443 169.682 281.568C169.682 278.693 167.465 276.363 164.731 276.363C161.996 276.363 159.78 278.693 159.78 281.568C159.78 284.443 161.996 286.774 164.731 286.774Z" fill="white"/>
<path d="M423.568 406.649H298.205V414.215H423.568V406.649Z" fill="#E6E6E6"/>
<path d="M491.794 434.249H298.205V441.816H491.794V434.249Z" fill="#2054F3"/>
<path d="M455.975 460.251H298.205V467.818H455.975V460.251Z" fill="#E6E6E6"/>
<path d="M390.309 486.157H298.205V493.724H390.309V486.157Z" fill="#E6E6E6"/>
<path d="M437.214 512.062H298.205V519.628H437.214V512.062Z" fill="#E6E6E6"/>
<path d="M645.647 355.036H630.297V371.176H645.647V355.036Z" fill="#E6E6E6"/>
<path d="M672.084 355.036H656.734V371.176H672.084V355.036Z" fill="#E6E6E6"/>
<path opacity="0.997" d="M640.909 493.723C658.126 493.723 672.083 479.048 672.083 460.945C672.083 442.843 658.126 428.168 640.909 428.168C623.692 428.168 609.734 442.843 609.734 460.945C609.734 479.048 623.692 493.723 640.909 493.723Z" fill="#2054F3"/>
<path d="M169 89.0001C187.225 89.0001 202 73.5539 202 54.5001C202 35.4463 187.225 20.0001 169 20.0001C150.775 20.0001 136 35.4463 136 54.5001C136 73.5539 150.775 89.0001 169 89.0001Z" fill="#2F2E41"/>
<path d="M81.1026 367.588H65.7316L58.4205 305.266H81.1008L81.1026 367.588Z" fill="#FEB8B8"/>
<path d="M54.7592 362.97H84.3957V382.591H36.0986C36.0986 377.387 38.0647 372.396 41.5642 368.717C45.0637 365.037 49.8101 362.97 54.7592 362.97Z" fill="#2F2E41"/>
<path d="M57.114 358.57L42.4525 353.732L53.2229 291.966L74.8621 299.107L57.114 358.57Z" fill="#FEB8B8"/>
<path d="M33.2854 345.874L61.5631 355.205L55.9757 373.925L9.89441 358.72C10.6282 356.261 11.8152 353.979 13.3879 352.003C14.9606 350.027 16.888 348.396 19.0601 347.203C21.2322 346.01 23.6066 345.279 26.0475 345.051C28.4884 344.823 30.9482 345.103 33.2863 345.874L33.2854 345.874Z" fill="#2F2E41"/>
<path d="M62.114 333.701C61.4425 333.701 60.7766 333.574 60.148 333.325L48.8387 328.869C47.5694 328.364 46.515 327.396 45.8676 326.142C45.2202 324.888 45.0228 323.431 45.3114 322.037C48.1577 308.58 57.8584 262.768 63.1703 238.196C69.4698 209.05 161.37 203.634 165.279 203.418L165.601 203.4L175.939 217.054C179.675 229.679 178.49 239.526 172.42 246.323C154.705 266.154 101.815 253.849 95.5085 252.292L67.3983 329.883C66.9886 331.006 66.2645 331.973 65.3216 332.654C64.3786 333.336 63.2611 333.701 62.1167 333.701H62.114Z" fill="#2F2E41"/>
<path d="M78.4091 342.927C77.7376 342.927 77.0716 342.8 76.443 342.551L65.1373 338.094C63.8679 337.589 62.8134 336.621 62.166 335.367C61.5185 334.113 61.3212 332.656 61.61 331.262C64.4563 317.806 74.157 271.994 79.469 247.422C85.7684 218.276 177.669 212.86 181.578 212.643L181.9 212.626L192.234 226.283C195.969 238.908 194.785 248.755 188.715 255.552C171.001 275.378 118.11 263.078 111.803 261.52L83.6897 339.108C83.2801 340.231 82.5559 341.198 81.613 341.879C80.67 342.561 79.5526 342.926 78.4082 342.926L78.4091 342.927Z" fill="#2F2E41"/>
<path d="M45.7001 153.116C46.1153 153.7 46.4861 154.318 46.8091 154.963L108.631 161.811L117.532 148.981L137.701 160.572L120.222 191.703L44.4025 171.377C42.4896 173.338 40.0542 174.64 37.4203 175.11C34.7864 175.581 32.0787 175.197 29.6575 174.009C27.2362 172.822 25.2161 170.888 23.8658 168.464C22.5155 166.04 21.899 163.242 22.0983 160.441C22.2976 157.639 23.3033 154.968 24.9815 152.783C26.6598 150.597 28.9311 149.001 31.4934 148.205C34.0557 147.41 36.7876 147.454 39.3256 148.331C41.8637 149.208 44.0877 150.876 45.7019 153.115L45.7001 153.116Z" fill="#FEB8B8"/>
<path d="M189.364 231.511C188.471 231.509 187.59 231.283 186.795 230.853C174.433 224.244 150.361 212.798 128.039 210.403C127.276 210.325 126.536 210.079 125.867 209.682C125.199 209.285 124.617 208.745 124.159 208.098C123.692 207.443 123.358 206.695 123.179 205.899C122.999 205.103 122.977 204.276 123.114 203.471C125.129 191.747 129.749 161.894 129.154 137.968C128.979 130.612 131.189 123.411 135.422 117.551C139.655 111.69 145.658 107.519 152.445 105.721C156.53 104.588 160.679 103.728 164.867 103.146C169.682 102.505 174.574 103.058 179.149 104.762C183.724 106.466 187.856 109.272 191.214 112.957C194.572 116.642 197.062 121.102 198.486 125.981C199.91 130.86 200.227 136.021 199.412 141.052C195.431 165.847 191.418 200.477 194.906 224.652C195.066 225.735 194.938 226.844 194.536 227.856C194.133 228.868 193.472 229.742 192.626 230.383C191.68 231.112 190.538 231.507 189.364 231.511Z" fill="#2054F3"/>
<path d="M130.299 168.446C129.528 168.444 128.766 168.277 128.059 167.954L111.955 160.625C110.583 159.999 109.503 158.826 108.953 157.364C108.403 155.902 108.426 154.27 109.019 152.826L121.468 122.59C122.207 120.758 123.283 119.097 124.633 117.702C125.983 116.307 127.581 115.205 129.336 114.459C131.091 113.713 132.968 113.338 134.861 113.355C136.754 113.372 138.625 113.781 140.368 114.559C142.111 115.336 143.69 116.467 145.017 117.887C146.344 119.306 147.392 120.986 148.102 122.832C148.811 124.677 149.168 126.651 149.151 128.642C149.135 130.632 148.746 132.599 148.006 134.431C147.98 134.498 147.952 134.564 147.924 134.631L135.476 164.868C135.037 165.929 134.314 166.833 133.395 167.468C132.475 168.104 131.399 168.443 130.299 168.446Z" fill="#2054F3"/>
<path d="M167.163 92.8598C184.166 92.8598 197.95 78.3673 197.95 60.4899C197.95 42.6125 184.166 28.12 167.163 28.12C150.16 28.12 136.376 42.6125 136.376 60.4899C136.376 78.3673 150.16 92.8598 167.163 92.8598Z" fill="#FEB8B8"/>
<path d="M135.823 44.5831C150.405 53.9428 166.845 59.6384 183.863 61.2266L178.799 54.8475C182.486 56.2808 186.366 57.0908 190.294 57.2473C192.261 57.3073 194.214 56.8816 195.996 56.0045C197.778 55.1274 199.34 53.8233 200.556 52.1968C201.549 50.5086 202.138 48.593 202.275 46.6133C202.411 44.6336 202.09 42.6485 201.34 40.8274C199.797 37.1937 197.395 34.0357 194.363 31.6539C188.988 27.1838 182.646 24.1812 175.9 22.9135C169.154 21.6459 162.215 22.1527 155.7 24.3888C151.232 25.7928 147.229 28.4921 144.152 32.1773C141.234 35.963 135.615 39.3363 137.109 43.9488L135.823 44.5831Z" fill="#2F2E41"/>
<path d="M115.403 223.195C113.363 223.193 111.349 222.714 109.506 221.795C107.664 220.875 106.038 219.538 104.746 217.878C103.454 216.218 102.528 214.278 102.035 212.197C101.542 210.115 101.495 207.945 101.895 205.842C102.296 203.739 103.136 201.756 104.354 200.035C105.571 198.314 107.137 196.899 108.937 195.891C110.738 194.883 112.728 194.307 114.766 194.206C116.804 194.104 118.837 194.479 120.72 195.303C121.287 195.554 121.836 195.847 122.364 196.179L178.446 169.708L180.021 153.716L204.196 153.036L204.036 179.66C204.006 182.745 203.032 185.737 201.257 188.193C199.481 190.649 197 192.437 194.181 193.293L128.6 212.917C128.473 213.372 128.324 213.821 128.153 214.26C127.101 216.902 125.33 219.159 123.063 220.749C120.797 222.338 118.134 223.189 115.409 223.194L115.403 223.195Z" fill="#FEB8B8"/>
<path d="M202.148 166.082C201.461 166.447 200.709 166.661 199.94 166.709L182.424 167.841C180.932 167.936 179.464 167.404 178.344 166.363C177.224 165.322 176.542 163.856 176.448 162.286L174.526 129.4C174.296 125.39 175.589 121.449 178.121 118.441C180.653 115.433 184.217 113.605 188.03 113.358C191.843 113.111 195.593 114.466 198.457 117.125C201.321 119.784 203.063 123.529 203.302 127.538L205.225 160.425C205.292 161.58 205.037 162.731 204.49 163.736C203.944 164.74 203.131 165.556 202.15 166.082H202.148Z" fill="#2054F3"/>
<path d="M166.878 217.295H62.2579C61.3803 217.295 60.6689 218.043 60.6689 218.965V224.849C60.6689 225.772 61.3803 226.52 62.2579 226.52H166.878C167.756 226.52 168.467 225.772 168.467 224.849V218.965C168.467 218.043 167.756 217.295 166.878 217.295Z" fill="#3F3D56"/>
<path d="M20.4694 217.954V153.375C20.472 151.104 21.3312 148.927 22.8586 147.321C24.386 145.715 26.4568 144.811 28.6169 144.809H140.175C142.336 144.811 144.407 145.714 145.934 147.32C147.461 148.926 148.321 151.104 148.323 153.375V217.954C148.321 220.225 147.461 222.403 145.934 224.009C144.407 225.615 142.336 226.518 140.175 226.521H28.6169C26.4568 226.518 24.386 225.615 22.8586 224.009C21.3312 222.403 20.472 220.225 20.4694 217.954Z" fill="#3F3D56"/>
<path d="M85.738 193.576C89.8918 193.576 93.2591 190.035 93.2591 185.668C93.2591 181.3 89.8918 177.76 85.738 177.76C81.5842 177.76 78.2169 181.3 78.2169 185.668C78.2169 190.035 81.5842 193.576 85.738 193.576Z" fill="white"/>
</svg>
