<svg width="1920" height="1020" viewBox="0 0 1920 1020" fill="none"
    xmlns="http://www.w3.org/2000/svg">
    <g clip-path="url(#clip0_70_649)">
        <path d="M865.7 478.9L719.2 623.1L854.7 615.1L865.7 478.9Z" fill="#343434" stroke="#343434"
            stroke-linejoin="bevel" />
        <path d="M865.7 478.9L673.2 446.9L719.2 623.1L865.7 478.9Z" fill="#323232" stroke="#323232"
            stroke-linejoin="bevel" />
        <path d="M865.7 478.9L699.2 328.6L673.2 446.9L865.7 478.9Z" fill="#383838" stroke="#383838"
            stroke-linejoin="bevel" />
        <path d="M509.6 609.1L686.2 772.4L719.2 623.1L509.6 609.1Z" fill="#353535" stroke="#353535"
            stroke-linejoin="bevel" />
        <path d="M719.2 623.1L686.2 772.4L854.7 615.1L719.2 623.1Z" fill="#3A3A3A" stroke="#3A3A3A"
            stroke-linejoin="bevel" />
        <path d="M497.6 331.6L537.6 472.9L673.2 446.9L497.6 331.6Z" fill="#2E2E2E" stroke="#2E2E2E"
            stroke-linejoin="bevel" />
        <path d="M673.2 446.9L537.6 472.9L719.2 623.1L673.2 446.9Z" fill="#393939" stroke="#393939"
            stroke-linejoin="bevel" />
        <path d="M865.7 478.9L860.7 291.6L699.2 328.6L865.7 478.9Z" fill="#353535" stroke="#353535"
            stroke-linejoin="bevel" />
        <path d="M686.2 772.4L887.7 792.4L854.7 615.1L686.2 772.4Z" fill="#323232" stroke="#323232"
            stroke-linejoin="bevel" />
        <path d="M854.7 615.1L1069.3 607.1L865.7 478.9L854.7 615.1Z" fill="#303030" stroke="#303030"
            stroke-linejoin="bevel" />
        <path d="M865.7 478.9L1042.3 292.6L860.7 291.6L865.7 478.9Z" fill="#303030" stroke="#303030"
            stroke-linejoin="bevel" />
        <path d="M537.6 472.9L509.6 609.1L719.2 623.1L537.6 472.9Z" fill="#2E2E2E" stroke="#2E2E2E"
            stroke-linejoin="bevel" />
        <path d="M1038.3 776.4L1069.3 607.1L854.7 615.1L1038.3 776.4Z" fill="#343434"
            stroke="#343434" stroke-linejoin="bevel" />
        <path d="M1069.3 607.1L1068.3 450.9L865.7 478.9L1069.3 607.1Z" fill="#303030"
            stroke="#303030" stroke-linejoin="bevel" />
        <path d="M887.7 792.4L1038.3 776.4L854.7 615.1L887.7 792.4Z" fill="#303030" stroke="#303030"
            stroke-linejoin="bevel" />
        <path d="M683.2 174.3L497.6 331.6L699.2 328.6L683.2 174.3Z" fill="#383838" stroke="#383838"
            stroke-linejoin="bevel" />
        <path d="M699.2 328.6L497.6 331.6L673.2 446.9L699.2 328.6Z" fill="#2E2E2E" stroke="#2E2E2E"
            stroke-linejoin="bevel" />
        <path d="M537.6 472.9L364.1 453.9L509.6 609.1L537.6 472.9Z" fill="#2F2F2F" stroke="#2F2F2F"
            stroke-linejoin="bevel" />
        <path d="M509.6 609.1L502.6 765.4L686.2 772.4L509.6 609.1Z" fill="#353535" stroke="#353535"
            stroke-linejoin="bevel" />
        <path d="M705.2 919.7L877.7 911.7L887.7 792.4L705.2 919.7Z" fill="#2F2F2F" stroke="#2F2F2F"
            stroke-linejoin="bevel" />
        <path d="M336.1 623.1L502.6 765.4L509.6 609.1L336.1 623.1Z" fill="#2E2E2E" stroke="#2E2E2E"
            stroke-linejoin="bevel" />
        <path d="M1068.3 450.9L1042.3 292.6L865.7 478.9L1068.3 450.9Z" fill="#2E2E2E"
            stroke="#2E2E2E" stroke-linejoin="bevel" />
        <path d="M860.7 291.6L683.2 174.3L699.2 328.6L860.7 291.6Z" fill="#393939" stroke="#393939"
            stroke-linejoin="bevel" />
        <path d="M897.7 161.3L683.2 174.3L860.7 291.6L897.7 161.3Z" fill="#383838" stroke="#383838"
            stroke-linejoin="bevel" />
        <path d="M705.2 919.7L887.7 792.4L686.2 772.4L705.2 919.7Z" fill="#363636" stroke="#363636"
            stroke-linejoin="bevel" />
        <path d="M887.7 792.4L877.7 911.7L1038.3 776.4L887.7 792.4Z" fill="#343434" stroke="#343434"
            stroke-linejoin="bevel" />
        <path d="M522.6 932.7L705.2 919.7L686.2 772.4L522.6 932.7Z" fill="#323232" stroke="#323232"
            stroke-linejoin="bevel" />
        <path d="M1042.3 292.6L897.7 161.3L860.7 291.6L1042.3 292.6Z" fill="#3A3A3A"
            stroke="#3A3A3A" stroke-linejoin="bevel" />
        <path d="M497.6 331.6L364.1 453.9L537.6 472.9L497.6 331.6Z" fill="#3A3A3A" stroke="#3A3A3A"
            stroke-linejoin="bevel" />
        <path d="M1069.3 607.1L1206.8 468.9L1068.3 450.9L1069.3 607.1Z" fill="#303030"
            stroke="#303030" stroke-linejoin="bevel" />
        <path d="M1068.3 450.9L1225.8 315.6L1042.3 292.6L1068.3 450.9Z" fill="#303030"
            stroke="#303030" stroke-linejoin="bevel" />
        <path d="M1221.8 630.1L1206.8 468.9L1069.3 607.1L1221.8 630.1Z" fill="#333333"
            stroke="#333333" stroke-linejoin="bevel" />
        <path d="M1195.8 760.4L1069.3 607.1L1038.3 776.4L1195.8 760.4Z" fill="#2F2F2F"
            stroke="#2F2F2F" stroke-linejoin="bevel" />
        <path d="M1195.8 760.4L1221.8 630.1L1069.3 607.1L1195.8 760.4Z" fill="#383838"
            stroke="#383838" stroke-linejoin="bevel" />
        <path d="M364.1 453.9L336.1 623.1L509.6 609.1L364.1 453.9Z" fill="#323232" stroke="#323232"
            stroke-linejoin="bevel" />
        <path d="M1022.3 1080L1070.3 908.7L877.7 911.7L1022.3 1080Z" fill="#393939" stroke="#393939"
            stroke-linejoin="bevel" />
        <path d="M877.7 911.7L1070.3 908.7L1038.3 776.4L877.7 911.7Z" fill="#393939"
            stroke="#393939" stroke-linejoin="bevel" />
        <path d="M1070.3 908.7L1195.8 760.4L1038.3 776.4L1070.3 908.7Z" fill="#3A3A3A"
            stroke="#3A3A3A" stroke-linejoin="bevel" />
        <path d="M364.1 796.4L522.6 932.7L502.6 765.4L364.1 796.4Z" fill="#393939" stroke="#393939"
            stroke-linejoin="bevel" />
        <path d="M502.6 765.4L522.6 932.7L686.2 772.4L502.6 765.4Z" fill="#2E2E2E" stroke="#2E2E2E"
            stroke-linejoin="bevel" />
        <path d="M705.2 919.7L880.7 1080L877.7 911.7L705.2 919.7Z" fill="#323232" stroke="#323232"
            stroke-linejoin="bevel" />
        <path d="M497.6 331.6L354.1 329.6L364.1 453.9L497.6 331.6Z" fill="#2F2F2F" stroke="#2F2F2F"
            stroke-linejoin="bevel" />
        <path d="M184.5 436.9V623.1H336.1L184.5 436.9Z" fill="#3A3A3A" stroke="#3A3A3A"
            stroke-linejoin="bevel" />
        <path d="M327.1 172.3L354.1 329.6L497.6 331.6L327.1 172.3Z" fill="#393939" stroke="#393939"
            stroke-linejoin="bevel" />
        <path d="M546.6 0L520.6 137.3L683.2 174.3L546.6 0Z" fill="#333333" stroke="#333333"
            stroke-linejoin="bevel" />
        <path d="M683.2 174.3L520.6 137.3L497.6 331.6L683.2 174.3Z" fill="#383838" stroke="#383838"
            stroke-linejoin="bevel" />
        <path d="M1042.3 292.6L1059.3 146.3L897.7 161.3L1042.3 292.6Z" fill="#363636"
            stroke="#363636" stroke-linejoin="bevel" />
        <path d="M897.7 161.3L854.7 0L683.2 174.3L897.7 161.3Z" fill="#3A3A3A" stroke="#3A3A3A"
            stroke-linejoin="bevel" />
        <path d="M1197.8 179.3L1059.3 146.3L1042.3 292.6L1197.8 179.3Z" fill="#2F2F2F"
            stroke="#2F2F2F" stroke-linejoin="bevel" />
        <path d="M336.1 623.1L364.1 796.4L502.6 765.4L336.1 623.1Z" fill="#363636" stroke="#363636"
            stroke-linejoin="bevel" />
        <path d="M1375.4 310.6L1225.8 315.6L1206.8 468.9L1375.4 310.6Z" fill="#363636"
            stroke="#363636" stroke-linejoin="bevel" />
        <path d="M1206.8 468.9L1225.8 315.6L1068.3 450.9L1206.8 468.9Z" fill="#303030"
            stroke="#303030" stroke-linejoin="bevel" />
        <path d="M1021.3 0H854.7L897.7 161.3L1021.3 0Z" fill="#363636" stroke="#363636"
            stroke-linejoin="bevel" />
        <path d="M854.7 0H697.2L683.2 174.3L854.7 0Z" fill="#2E2E2E" stroke="#2E2E2E"
            stroke-linejoin="bevel" />
        <path d="M683.2 1080H880.7L705.2 919.7L683.2 1080Z" fill="#3A3A3A" stroke="#3A3A3A"
            stroke-linejoin="bevel" />
        <path d="M522.6 932.7L683.2 1080L705.2 919.7L522.6 932.7Z" fill="#333333" stroke="#333333"
            stroke-linejoin="bevel" />
        <path d="M543.6 1080H683.2L522.6 932.7L543.6 1080Z" fill="#3A3A3A" stroke="#3A3A3A"
            stroke-linejoin="bevel" />
        <path d="M1225.8 315.6L1197.8 179.3L1042.3 292.6L1225.8 315.6Z" fill="#353535"
            stroke="#353535" stroke-linejoin="bevel" />
        <path d="M1059.3 146.3L1021.3 0L897.7 161.3L1059.3 146.3Z" fill="#383838" stroke="#383838"
            stroke-linejoin="bevel" />
        <path d="M196.5 925.7L353.1 910.7L364.1 796.4L196.5 925.7Z" fill="#353535" stroke="#353535"
            stroke-linejoin="bevel" />
        <path d="M364.1 796.4L353.1 910.7L522.6 932.7L364.1 796.4Z" fill="#2E2E2E" stroke="#2E2E2E"
            stroke-linejoin="bevel" />
        <path d="M1206.8 1080L1204.8 925.7L1070.3 908.7L1206.8 1080Z" fill="#333333"
            stroke="#333333" stroke-linejoin="bevel" />
        <path d="M1070.3 908.7L1204.8 925.7L1195.8 760.4L1070.3 908.7Z" fill="#383838"
            stroke="#383838" stroke-linejoin="bevel" />
        <path d="M1195.8 760.4L1379.4 626.1L1221.8 630.1L1195.8 760.4Z" fill="#303030"
            stroke="#303030" stroke-linejoin="bevel" />
        <path d="M364.1 0L327.1 172.3L520.6 137.3L364.1 0Z" fill="#333333" stroke="#333333"
            stroke-linejoin="bevel" />
        <path d="M520.6 137.3L327.1 172.3L497.6 331.6L520.6 137.3Z" fill="#303030" stroke="#303030"
            stroke-linejoin="bevel" />
        <path d="M184.5 436.9L336.1 623.1L364.1 453.9L184.5 436.9Z" fill="#353535" stroke="#353535"
            stroke-linejoin="bevel" />
        <path d="M374.1 1080H543.6L522.6 932.7L374.1 1080Z" fill="#333333" stroke="#333333"
            stroke-linejoin="bevel" />
        <path d="M697.2 0H546.6L683.2 174.3L697.2 0Z" fill="#353535" stroke="#353535"
            stroke-linejoin="bevel" />
        <path d="M880.7 1080H1022.3L877.7 911.7L880.7 1080Z" fill="#353535" stroke="#353535"
            stroke-linejoin="bevel" />
        <path d="M1209.8 0H1021.3L1059.3 146.3L1209.8 0Z" fill="#303030" stroke="#303030"
            stroke-linejoin="bevel" />
        <path d="M1416.4 775.4L1379.4 626.1L1195.8 760.4L1416.4 775.4Z" fill="#303030"
            stroke="#303030" stroke-linejoin="bevel" />
        <path d="M1221.8 630.1L1379.4 626.1L1206.8 468.9L1221.8 630.1Z" fill="#363636"
            stroke="#363636" stroke-linejoin="bevel" />
        <path d="M1225.8 315.6L1375.4 310.6L1197.8 179.3L1225.8 315.6Z" fill="#393939"
            stroke="#393939" stroke-linejoin="bevel" />
        <path d="M184.5 436.9L364.1 453.9L354.1 329.6L184.5 436.9Z" fill="#2E2E2E" stroke="#2E2E2E"
            stroke-linejoin="bevel" />
        <path d="M336.1 623.1L163.5 778.4L364.1 796.4L336.1 623.1Z" fill="#363636" stroke="#363636"
            stroke-linejoin="bevel" />
        <path d="M162.5 315.6L184.5 436.9L354.1 329.6L162.5 315.6Z" fill="#323232" stroke="#323232"
            stroke-linejoin="bevel" />
        <path d="M1379.4 626.1L1413.4 464.9L1206.8 468.9L1379.4 626.1Z" fill="#353535"
            stroke="#353535" stroke-linejoin="bevel" />
        <path d="M1413.4 464.9L1375.4 310.6L1206.8 468.9L1413.4 464.9Z" fill="#2E2E2E"
            stroke="#2E2E2E" stroke-linejoin="bevel" />
        <path d="M1197.8 179.3L1209.8 0L1059.3 146.3L1197.8 179.3Z" fill="#353535" stroke="#353535"
            stroke-linejoin="bevel" />
        <path d="M327.1 172.3L162.5 315.6L354.1 329.6L327.1 172.3Z" fill="#353535" stroke="#353535"
            stroke-linejoin="bevel" />
        <path d="M184.5 436.9L0 473.9L184.5 623.1V436.9Z" fill="#323232" stroke="#323232"
            stroke-linejoin="bevel" />
        <path d="M0 641.1L163.5 778.4L184.5 623.1L0 641.1Z" fill="#303030" stroke="#303030"
            stroke-linejoin="bevel" />
        <path d="M184.5 623.1L163.5 778.4L336.1 623.1H184.5Z" fill="#393939" stroke="#393939"
            stroke-linejoin="bevel" />
        <path d="M353.1 910.7L374.1 1080L522.6 932.7L353.1 910.7Z" fill="#2F2F2F" stroke="#2F2F2F"
            stroke-linejoin="bevel" />
        <path d="M1204.8 925.7L1416.4 775.4L1195.8 760.4L1204.8 925.7Z" fill="#2E2E2E"
            stroke="#2E2E2E" stroke-linejoin="bevel" />
        <path d="M1379.4 626.1L1567.9 641.1L1413.4 464.9L1379.4 626.1Z" fill="#383838"
            stroke="#383838" stroke-linejoin="bevel" />
        <path d="M1408.4 919.7L1416.4 775.4L1204.8 925.7L1408.4 919.7Z" fill="#2E2E2E"
            stroke="#2E2E2E" stroke-linejoin="bevel" />
        <path d="M196.5 925.7L374.1 1080L353.1 910.7L196.5 925.7Z" fill="#383838" stroke="#383838"
            stroke-linejoin="bevel" />
        <path d="M546.6 0H364.1L520.6 137.3L546.6 0Z" fill="#383838" stroke="#383838"
            stroke-linejoin="bevel" />
        <path d="M327.1 172.3L199.5 164.3L162.5 315.6L327.1 172.3Z" fill="#343434" stroke="#343434"
            stroke-linejoin="bevel" />
        <path d="M1022.3 1080H1206.8L1070.3 908.7L1022.3 1080Z" fill="#393939" stroke="#393939"
            stroke-linejoin="bevel" />
        <path d="M1394.4 149.3L1209.8 0L1197.8 179.3L1394.4 149.3Z" fill="#303030" stroke="#303030"
            stroke-linejoin="bevel" />
        <path d="M364.1 0L199.5 164.3L327.1 172.3L364.1 0Z" fill="#393939" stroke="#393939"
            stroke-linejoin="bevel" />
        <path d="M163.5 778.4L196.5 925.7L364.1 796.4L163.5 778.4Z" fill="#353535" stroke="#353535"
            stroke-linejoin="bevel" />
        <path d="M1570.9 295.6L1394.4 149.3L1375.4 310.6L1570.9 295.6Z" fill="#2E2E2E"
            stroke="#2E2E2E" stroke-linejoin="bevel" />
        <path d="M1375.4 310.6L1394.4 149.3L1197.8 179.3L1375.4 310.6Z" fill="#3A3A3A"
            stroke="#3A3A3A" stroke-linejoin="bevel" />
        <path d="M1386.4 1080L1408.4 919.7L1204.8 925.7L1386.4 1080Z" fill="#2E2E2E"
            stroke="#2E2E2E" stroke-linejoin="bevel" />
        <path d="M0 293.6V473.9L162.5 315.6L0 293.6Z" fill="#343434" stroke="#343434"
            stroke-linejoin="bevel" />
        <path d="M162.5 315.6L0 473.9L184.5 436.9L162.5 315.6Z" fill="#393939" stroke="#393939"
            stroke-linejoin="bevel" />
        <path d="M163.5 778.4L0 945.7L196.5 925.7L163.5 778.4Z" fill="#2E2E2E" stroke="#2E2E2E"
            stroke-linejoin="bevel" />
        <path d="M0 473.9V641.1L184.5 623.1L0 473.9Z" fill="#343434" stroke="#343434"
            stroke-linejoin="bevel" />
        <path d="M1581.9 767.4L1567.9 641.1L1416.4 775.4L1581.9 767.4Z" fill="#3A3A3A"
            stroke="#3A3A3A" stroke-linejoin="bevel" />
        <path d="M1416.4 775.4L1567.9 641.1L1379.4 626.1L1416.4 775.4Z" fill="#3A3A3A"
            stroke="#3A3A3A" stroke-linejoin="bevel" />
        <path d="M1413.4 464.9L1570.9 295.6L1375.4 310.6L1413.4 464.9Z" fill="#2F2F2F"
            stroke="#2F2F2F" stroke-linejoin="bevel" />
        <path d="M196.5 925.7L184.5 1080H374.1L196.5 925.7Z" fill="#343434" stroke="#343434"
            stroke-linejoin="bevel" />
        <path d="M0 945.7L184.5 1080L196.5 925.7L0 945.7Z" fill="#383838" stroke="#383838"
            stroke-linejoin="bevel" />
        <path d="M0 641.1V746.4L163.5 778.4L0 641.1Z" fill="#333333" stroke="#333333"
            stroke-linejoin="bevel" />
        <path d="M1206.8 1080H1386.4L1204.8 925.7L1206.8 1080Z" fill="#353535" stroke="#353535"
            stroke-linejoin="bevel" />
        <path d="M1574.9 908.7L1581.9 767.4L1416.4 775.4L1574.9 908.7Z" fill="#393939"
            stroke="#393939" stroke-linejoin="bevel" />
        <path d="M1567.9 641.1L1591.9 468.9L1413.4 464.9L1567.9 641.1Z" fill="#333333"
            stroke="#333333" stroke-linejoin="bevel" />
        <path d="M0 145.3V293.6L162.5 315.6L0 145.3Z" fill="#383838" stroke="#383838"
            stroke-linejoin="bevel" />
        <path d="M0 145.3L162.5 315.6L199.5 164.3L0 145.3Z" fill="#303030" stroke="#303030"
            stroke-linejoin="bevel" />
        <path d="M1591.9 468.9L1570.9 295.6L1413.4 464.9L1591.9 468.9Z" fill="#343434"
            stroke="#343434" stroke-linejoin="bevel" />
        <path d="M1574.9 908.7L1416.4 775.4L1408.4 919.7L1574.9 908.7Z" fill="#363636"
            stroke="#363636" stroke-linejoin="bevel" />
        <path d="M1567.9 641.1L1762.5 635.1L1591.9 468.9L1567.9 641.1Z" fill="#363636"
            stroke="#363636" stroke-linejoin="bevel" />
        <path d="M364.1 0H150.5L199.5 164.3L364.1 0Z" fill="#383838" stroke="#383838"
            stroke-linejoin="bevel" />
        <path d="M1394.4 149.3L1417.4 0H1209.8L1394.4 149.3Z" fill="#383838" stroke="#383838"
            stroke-linejoin="bevel" />
        <path d="M1585.9 131.3L1417.4 0L1394.4 149.3L1585.9 131.3Z" fill="#323232" stroke="#323232"
            stroke-linejoin="bevel" />
        <path d="M1571.9 1080L1574.9 908.7L1408.4 919.7L1571.9 1080Z" fill="#333333"
            stroke="#333333" stroke-linejoin="bevel" />
        <path d="M150.5 0L0 145.3L199.5 164.3L150.5 0Z" fill="#2F2F2F" stroke="#2F2F2F"
            stroke-linejoin="bevel" />
        <path d="M0 746.4V945.7L163.5 778.4L0 746.4Z" fill="#383838" stroke="#383838"
            stroke-linejoin="bevel" />
        <path d="M1731.5 150.3L1585.9 131.3L1570.9 295.6L1731.5 150.3Z" fill="#393939"
            stroke="#393939" stroke-linejoin="bevel" />
        <path d="M1570.9 295.6L1585.9 131.3L1394.4 149.3L1570.9 295.6Z" fill="#393939"
            stroke="#393939" stroke-linejoin="bevel" />
        <path d="M1585.9 131.3L1554.9 0H1417.4L1585.9 131.3Z" fill="#303030" stroke="#303030"
            stroke-linejoin="bevel" />
        <path d="M0 945.7V1080H184.5L0 945.7Z" fill="#343434" stroke="#343434"
            stroke-linejoin="bevel" />
        <path d="M150.5 0H0V145.3L150.5 0Z" fill="#2E2E2E" stroke="#2E2E2E" stroke-linejoin="bevel" />
        <path d="M1386.4 1080H1571.9L1408.4 919.7L1386.4 1080Z" fill="#323232" stroke="#323232"
            stroke-linejoin="bevel" />
        <path d="M1756.5 787.4L1762.5 635.1L1581.9 767.4L1756.5 787.4Z" fill="#343434"
            stroke="#343434" stroke-linejoin="bevel" />
        <path d="M1581.9 767.4L1762.5 635.1L1567.9 641.1L1581.9 767.4Z" fill="#363636"
            stroke="#363636" stroke-linejoin="bevel" />
        <path d="M1756.5 787.4L1581.9 767.4L1574.9 908.7L1756.5 787.4Z" fill="#2E2E2E"
            stroke="#2E2E2E" stroke-linejoin="bevel" />
        <path d="M1591.9 468.9L1741.5 301.6L1570.9 295.6L1591.9 468.9Z" fill="#323232"
            stroke="#323232" stroke-linejoin="bevel" />
        <path d="M1585.9 131.3L1767.5 0H1554.9L1585.9 131.3Z" fill="#353535" stroke="#353535"
            stroke-linejoin="bevel" />
        <path d="M1762.5 635.1L1767.5 466.9L1591.9 468.9L1762.5 635.1Z" fill="#2E2E2E"
            stroke="#2E2E2E" stroke-linejoin="bevel" />
        <path d="M1767.5 466.9L1741.5 301.6L1591.9 468.9L1767.5 466.9Z" fill="#333333"
            stroke="#333333" stroke-linejoin="bevel" />
        <path d="M1749.5 917.7L1756.5 787.4L1574.9 908.7L1749.5 917.7Z" fill="#3A3A3A"
            stroke="#3A3A3A" stroke-linejoin="bevel" />
        <path d="M1767.5 0L1731.5 150.3L1920 145.3L1767.5 0Z" fill="#333333" stroke="#333333"
            stroke-linejoin="bevel" />
        <path d="M1741.5 301.6L1731.5 150.3L1570.9 295.6L1741.5 301.6Z" fill="#323232"
            stroke="#323232" stroke-linejoin="bevel" />
        <path d="M1571.9 1080L1749.5 917.7L1574.9 908.7L1571.9 1080Z" fill="#303030"
            stroke="#303030" stroke-linejoin="bevel" />
        <path d="M1571.9 1080H1755.5L1749.5 917.7L1571.9 1080Z" fill="#333333" stroke="#333333"
            stroke-linejoin="bevel" />
        <path d="M1920 641.1L1762.5 635.1L1920 778.4V641.1Z" fill="#393939" stroke="#393939"
            stroke-linejoin="bevel" />
        <path d="M1920 641.1L1767.5 466.9L1762.5 635.1L1920 641.1Z" fill="#333333" stroke="#333333"
            stroke-linejoin="bevel" />
        <path d="M1920 641.1V449.9L1767.5 466.9L1920 641.1Z" fill="#383838" stroke="#383838"
            stroke-linejoin="bevel" />
        <path d="M1920 145.3L1731.5 150.3L1741.5 301.6L1920 145.3Z" fill="#353535" stroke="#353535"
            stroke-linejoin="bevel" />
        <path d="M1731.5 150.3L1767.5 0L1585.9 131.3L1731.5 150.3Z" fill="#363636" stroke="#363636"
            stroke-linejoin="bevel" />
        <path d="M1762.5 635.1L1756.5 787.4L1920 778.4L1762.5 635.1Z" fill="#353535"
            stroke="#353535" stroke-linejoin="bevel" />
        <path d="M1767.5 466.9L1920 308.6L1741.5 301.6L1767.5 466.9Z" fill="#383838"
            stroke="#383838" stroke-linejoin="bevel" />
        <path d="M1920 778.4L1756.5 787.4L1920 913.7V778.4Z" fill="#303030" stroke="#303030"
            stroke-linejoin="bevel" />
        <path d="M1920 449.9V308.6L1767.5 466.9L1920 449.9Z" fill="#383838" stroke="#383838"
            stroke-linejoin="bevel" />
        <path d="M1920 913.7L1756.5 787.4L1749.5 917.7L1920 913.7Z" fill="#2F2F2F" stroke="#2F2F2F"
            stroke-linejoin="bevel" />
        <path d="M1755.5 1080L1920 913.7L1749.5 917.7L1755.5 1080Z" fill="#343434" stroke="#343434"
            stroke-linejoin="bevel" />
        <path d="M1920 308.6V145.3L1741.5 301.6L1920 308.6Z" fill="#3A3A3A" stroke="#3A3A3A"
            stroke-linejoin="bevel" />
        <path d="M1755.5 1080H1920V913.7L1755.5 1080Z" fill="#303030" stroke="#303030"
            stroke-linejoin="bevel" />
        <path d="M1920 145.3V0H1767.5L1920 145.3Z" fill="#333333" stroke="#333333"
            stroke-linejoin="bevel" />
    </g>
    <defs>
        <clipPath id="clip0_70_649">
            <rect width="1920" height="1020" fill="white" />
        </clipPath>
    </defs>
</svg>