<svg width="100" height="100" viewBox="0 0 100 100" fill="none" xmlns="http://www.w3.org/2000/svg">
<path d="M55.0781 9.375C59.4604 19.7144 39.3677 26.0498 37.5 34.668C35.791 42.5781 49.4019 51.8555 49.4141 51.8555C47.3389 48.584 45.8252 45.8252 43.75 40.7227C40.2344 32.1045 65.1733 24.3286 55.0781 9.375ZM68.3594 23.7305C68.3594 23.7305 50.7935 24.8413 49.9023 36.3281C49.4995 41.4429 54.541 44.1284 54.6875 47.8516C54.8096 50.8911 51.6602 53.418 51.6602 53.418C51.6602 53.418 57.312 52.3926 59.082 47.7539C61.0352 42.6025 55.2734 39.0869 55.8594 34.9609C56.4209 31.0181 68.3594 23.7305 68.3594 23.7305ZM72.6562 50.1953C70.813 50.1099 68.7378 50.7935 66.8945 52.1484C70.5322 51.3428 73.6328 53.6255 73.6328 56.25C73.6328 62.1338 65.2344 67.6758 65.2344 67.6758C65.2344 67.6758 78.2227 66.2231 78.2227 56.543C78.2227 52.5513 75.7202 50.3418 72.6562 50.1953ZM38.1836 50.293C33.6548 50.4517 24.6094 51.1963 24.6094 54.6875C24.6094 59.5459 45.6787 59.9243 60.7422 56.9336C60.7422 56.9336 64.8438 54.0771 65.918 53.0273C56.0425 55.0781 33.4961 55.3955 33.4961 53.6133C33.4961 51.9775 40.7227 50.293 40.7227 50.293C40.7227 50.293 39.6973 50.2441 38.1836 50.293ZM36.8164 59.2773C34.3384 59.2773 30.6641 61.2061 30.6641 63.0859C30.6641 66.8701 49.3164 69.7754 63.0859 64.2578L58.3008 61.3281C48.9624 64.3799 31.7139 63.3667 36.8164 59.2773ZM39.1602 67.7734C35.7788 67.7734 33.5938 69.9097 33.5938 71.4844C33.5938 76.3306 53.7964 76.8066 61.8164 71.875L56.7383 68.5547C50.7568 71.1304 35.7056 71.5088 39.1602 67.7734ZM27.832 72.168C22.3145 72.0581 18.75 74.5605 18.75 76.6602C18.75 87.8296 75.293 87.2925 75.293 75.8789C75.293 73.9868 73.0591 73.0835 72.2656 72.6562C76.8799 83.5693 26.0742 82.7148 26.0742 76.2695C26.0742 74.8047 29.834 73.3398 33.3008 74.0234L30.3711 72.3633C29.5044 72.229 28.6255 72.1802 27.832 72.168ZM81.25 79.6875C72.6562 88.0005 50.9033 90.979 29.0039 85.8398C50.9033 94.9951 81.1401 89.9048 81.25 79.6875Z" fill="white"/>
</svg>
