<svg width="100" height="100" viewBox="0 0 100 100" fill="none" xmlns="http://www.w3.org/2000/svg">
<path d="M16.3086 12.5L16.6016 15.918L22.0703 77.7344L22.2656 79.8828L24.3164 80.4688L49.1211 87.4023L49.9023 87.5977L50.7812 87.4023L75.5859 80.5664L77.6367 79.9805L77.832 77.832L83.3984 15.918L83.6914 12.5977H80.2734L19.7266 12.5H16.3086ZM23.1445 18.75L76.8555 18.8477L71.7773 75.0977L50 81.1523L28.125 75.0977L23.1445 18.75ZM30.6641 28.125L32.7148 51.4648H59.4727L58.5938 61.5234L50 63.8672H49.9023L41.3086 61.5234L40.8203 55.0781H33.0078L34.082 67.4805L49.9023 71.875H50L65.8203 67.4805L67.9688 43.75H39.7461L39.0625 35.8398H68.6523L69.3359 28.125H30.6641Z" fill="white"/>
</svg>
