<svg id="visual" viewBox="0 0 1920 1080" width="1920" height="1080" xmlns="http://www.w3.org/2000/svg" xmlns:xlink="http://www.w3.org/1999/xlink" version="1.1"><g transform="translate(909.8916342034388 581.6455418112981)"><path d="M251.1 -296.3C339.4 -225.2 434.6 -159.3 471.9 -65.8C509.1 27.7 488.4 148.9 422.2 225.2C356 301.5 244.4 333.1 142.2 354.6C40 376.2 -52.7 387.8 -123.5 355.1C-194.3 322.5 -243.3 245.6 -291.5 166.3C-339.6 87 -387 5.2 -389.9 -84.5C-392.8 -174.1 -351.3 -271.7 -278.9 -345.6C-206.5 -419.5 -103.3 -469.7 -10.9 -456.7C81.4 -443.7 162.8 -367.4 251.1 -296.3" fill="#2054F3"></path></g></svg>